<?xml version="1.0" encoding="UTF-8"?>
<svg id="Layer_1" xmlns="http://www.w3.org/2000/svg" version="1.1" viewBox="0 0 926.33 926.29">
  <!-- Generator: Adobe Illustrator 30.3.0, SVG Export Plug-In . SVG Version: 2.1.3 Build 182)  -->
  <defs>
    <style>
      .st0 {
        fill: #0054ff;
        fill-rule: evenodd;
      }
    </style>
  </defs>
  <path class="st0" d="M811.82,477.25c-142.36,67.34-262.67,182.44-334.5,334.38-5.67,11.98-22.63,11.98-28.29,0-71.83-151.94-192.14-267.04-334.5-334.38-11.92-5.64-11.79-22.59.13-28.23,151.95-71.82,267.08-192.14,334.43-334.51,5.61-11.86,22.56-11.86,28.17,0,67.34,142.37,182.48,262.69,334.43,334.51,11.93,5.64,12.05,22.59.13,28.23h0ZM855.97,493.05c-7.92-19.13-7.92-40.63,0-59.76l68.57-165.59c4.78-11.53-.31-24.82-11.6-30.13-101.96-47.91-179.14-128.52-224.12-223.97-5.35-11.36-18.6-16.62-30.21-11.81l-165.55,68.57c-19.14,7.93-40.64,7.93-59.78,0L267.72,1.78c-11.61-4.81-24.85.45-30.21,11.81C192.54,109.04,115.36,189.65,13.4,237.56c-11.29,5.31-16.38,18.6-11.61,30.13l68.58,165.59c7.92,19.13,7.92,40.63,0,59.76L1.78,658.63c-4.81,11.61.45,24.85,11.81,30.21,95.46,44.98,176.09,122.13,224.02,224.06,5.31,11.29,18.59,16.37,30.12,11.6l165.54-68.57c19.14-7.93,40.64-7.93,59.78,0l165.53,68.57c11.54,4.78,24.82-.31,30.13-11.6,47.93-101.93,128.57-179.09,224.02-224.06,11.37-5.36,16.63-18.6,11.82-30.21l-68.58-165.59Z"/>
</svg>